<svg id="visual" viewBox="0 0 960 540" width="960" height="540" xmlns="http://www.w3.org/2000/svg" xmlns:xlink="http://www.w3.org/1999/xlink" version="1.1"><rect x="0" y="0" width="960" height="540" fill="#fff"></rect><path d="M0 339L22.8 351.8C45.7 364.7 91.3 390.3 137 394.8C182.7 399.3 228.3 382.7 274 369.7C319.7 356.7 365.3 347.3 411.2 353C457 358.7 503 379.3 548.8 393.7C594.7 408 640.3 416 686 420.3C731.7 424.7 777.3 425.3 823 419.2C868.7 413 914.3 400 937.2 393.5L960 387L960 541L937.2 541C914.3 541 868.7 541 823 541C777.3 541 731.7 541 686 541C640.3 541 594.7 541 548.8 541C503 541 457 541 411.2 541C365.3 541 319.7 541 274 541C228.3 541 182.7 541 137 541C91.3 541 45.7 541 22.8 541L0 541Z" fill="#fd4c67" stroke-linecap="round" stroke-linejoin="miter"></path></svg>